<svg id="visual" viewBox="0 0 900 600" width="900" height="600" xmlns="http://www.w3.org/2000/svg" xmlns:xlink="http://www.w3.org/1999/xlink" version="1.1"><path d="M0 127L82 109L164 103L245 61L327 55L409 67L491 55L573 79L655 85L736 145L818 127L900 61L900 0L818 0L736 0L655 0L573 0L491 0L409 0L327 0L245 0L164 0L82 0L0 0Z" fill="#00cc8e"></path><path d="M0 199L82 151L164 157L245 127L327 121L409 115L491 133L573 157L655 139L736 205L818 187L900 127L900 59L818 125L736 143L655 83L573 77L491 53L409 65L327 53L245 59L164 101L82 107L0 125Z" fill="#00bd8b"></path><path d="M0 391L82 247L164 283L245 331L327 289L409 241L491 367L573 367L655 325L736 343L818 319L900 259L900 125L818 185L736 203L655 137L573 155L491 131L409 113L327 119L245 125L164 155L82 149L0 197Z" fill="#00ae87"></path><path d="M0 439L82 355L164 355L245 379L327 325L409 349L491 409L573 439L655 379L736 451L818 427L900 313L900 257L818 317L736 341L655 323L573 365L491 365L409 239L327 287L245 329L164 281L82 245L0 389Z" fill="#00a081"></path><path d="M0 517L82 451L164 445L245 457L327 361L409 445L491 487L573 499L655 439L736 481L818 463L900 355L900 311L818 425L736 449L655 377L573 437L491 407L409 347L327 323L245 377L164 353L82 353L0 437Z" fill="#00917b"></path><path d="M0 601L82 601L164 601L245 601L327 601L409 601L491 601L573 601L655 601L736 601L818 601L900 601L900 353L818 461L736 479L655 437L573 497L491 485L409 443L327 359L245 455L164 443L82 449L0 515Z" fill="#038373"></path></svg>